<?xml version="1.0" encoding="UTF-8"?>
<svg width="16px" height="16px" viewBox="0 0 16 16" version="1.1" xmlns="http://www.w3.org/2000/svg" xmlns:xlink="http://www.w3.org/1999/xlink">
    <!-- Generator: Sketch 63 (92445) - https://sketch.com -->
    <title>灯泡</title>
    <desc>Created with Sketch.</desc>
    <g id="页面-1" stroke="none" stroke-width="1">
        <g id="左侧菜单栏" transform="translate(-46.000000, -1067.000000)">
            <g id="灯泡" transform="translate(46.000000, 1067.000000)">
                <g transform="translate(2.000000, 0.000000)">
                    <path d="M8.15670443,15.9520345 L4.782138,15.9520345 C3.8545338,15.9520345 3.1028548,15.1843617 3.1028548,14.2407669 L3.1028548,12.4495304 C3.1028548,12.2576115 2.99090248,12.0816878 2.84696388,11.9697346 C1.0397274,10.7382597 -0.0158207049,8.65913696 0.000179313753,6.46807191 C0.0321657572,3.02953666 2.73501062,0.214736506 6.14156146,0.00683001371 C7.94879794,-0.0731358606 9.62808114,0.550597834 10.9555046,1.79806647 C12.2509529,3.04553511 12.9546475,4.72481988 12.9546475,6.54804075 C12.9546475,8.70712139 11.8831041,10.7382488 10.107863,11.9537345 C9.93193775,12.0656869 9.85197203,12.2416114 9.85197203,12.4335304 L9.85197203,14.2247669 C9.85197203,15.1843586 9.08429926,15.9520345 8.1566888,15.9520345 L8.15670443,15.9520345 Z M6.47742123,1.15831729 L6.18954433,1.15831729 C3.438713,1.30226855 1.16767911,3.68525461 1.1356947,6.48405474 C1.10370825,8.30727561 1.98333318,9.98655881 3.47069741,11.0101225 C3.95049329,11.3299869 4.22237798,11.857761 4.22237798,12.4335163 L4.22237798,14.2567372 C4.22237798,14.5766017 4.4782689,14.8324926 4.78213957,14.8324926 L8.15670599,14.8324926 C8.46057666,14.8324926 8.71646758,14.5766017 8.71646758,14.2567372 L8.71646758,12.4655008 C8.71646758,11.8897454 9.00434448,11.3619714 9.46814814,11.0421069 C10.923528,10.0505292 11.8031509,8.37124443 11.8031509,6.56400796 C11.8031509,5.06064839 11.2114033,3.65325457 10.1398521,2.62969088 C9.14827433,1.67009914 7.85283376,1.15831729 6.47741029,1.15831729 L6.47742123,1.15831729 Z" id="形状"></path>
                    <path d="M9.29220575,13.680985 L3.66260545,13.680985 C3.35873478,13.680985 3.10284386,13.4250941 3.10284386,13.1052296 C3.10284386,12.7853652 3.35873478,12.5294743 3.66260545,12.5294743 L9.29220575,12.5294743 C9.59607642,12.5294743 9.85196734,12.7853652 9.85196734,13.1052296 C9.85196734,13.4250941 9.59607642,13.680985 9.29220575,13.680985 Z" id="路径"></path>
                </g>
            </g>
        </g>
    </g>
</svg>