<?xml version="1.0" encoding="UTF-8"?>
<svg width="20px" height="20px" viewBox="0 0 20 20" version="1.1" xmlns="http://www.w3.org/2000/svg" xmlns:xlink="http://www.w3.org/1999/xlink">
    <!-- Generator: Sketch 63 (92445) - https://sketch.com -->
    <title>icon_menu_jcgl_nor@2x</title>
    <desc>Created with Sketch.</desc>
    <g id="icon_menu_jcgl_nor" stroke="none" stroke-width="1">
        <g id="dynamic" transform="translate(2.000000, 2.000000)">
            <rect id="矩形" opacity="0" x="0" y="0" width="16" height="16"></rect>
            <path d="M1.45454545,14.5512727 L1.45454545,1.45454545 L14.5454545,1.448 L14.5512727,14.5461818 L1.45454545,14.5505455 L1.45454545,14.5512727 Z M14.5512727,0 L1.44872727,0 C0.649233167,0.000800995958 0.00120244906,0.648506398 0,1.448 L0,14.5512727 C0,15.3498182 0.650181818,16 1.44872727,16 L14.5512727,16 C15.3508845,15.9987985 15.9987985,15.3508845 16,14.5512727 L16,1.448 C15.9983972,0.648790459 15.3504835,0.00152728147 14.5512727,0.000727272727 L14.5512727,0 Z" id="形状"></path>
            <path d="M9.77800905,7.3738382 L5.91896064,7.3738382 C4.30678219,7.3738382 3,8.49275974 3,9.87317431 C3,11.2535889 4.30678219,12.3725104 5.91896064,12.3725104 L9.82598947,12.3725104 C10.0779323,12.7474108 10.5500741,13 11.0915413,13 C11.8975394,13 12.5510217,12.4404611 12.5510217,11.7503319 C12.5510217,11.0602028 11.8975394,10.5006639 11.0915413,10.5006639 C10.5526282,10.5006639 10.0823107,10.7509099 9.82963817,11.1228424 L5.91896064,11.1228424 C5.11296264,11.1228424 4.45948032,10.5633035 4.45948032,9.87317431 C4.45948032,9.18304513 5.11296264,8.62350626 5.91896064,8.62350626 L9.77800905,8.62350626 C11.3901875,8.62350626 12.6969697,7.50458472 12.6969697,6.12417014 C12.6969697,4.74375556 11.3901875,3.62483403 9.77800905,3.62483403 L5.86915588,3.62483403 C5.61684822,3.25133949 5.14561851,3 4.60542835,3 C3.79943035,3 3.14594803,3.55953887 3.14594803,4.24966806 C3.14594803,4.93979724 3.79943035,5.49933611 4.60542835,5.49933611 C5.14561851,5.49933611 5.61684822,5.24799663 5.86915588,4.87450209 L9.77800905,4.87450209 C10.5840071,4.87450209 11.2374894,5.43404096 11.2374894,6.12417014 C11.2374894,6.81429933 10.5840071,7.3738382 9.77800905,7.3738382 Z" id="路径"></path>
        </g>
    </g>
</svg>