<?xml version="1.0" encoding="UTF-8"?>
<svg width="20px" height="20px" viewBox="0 0 20 20" version="1.1" xmlns="http://www.w3.org/2000/svg" xmlns:xlink="http://www.w3.org/1999/xlink">
    <!-- Generator: Sketch 63 (92445) - https://sketch.com -->
    <title>icon_menu_peizhi_nor@2x</title>
    <desc>Created with Sketch.</desc>
    <g id="icon_menu_peizhi_nor" stroke="none" stroke-width="1">
        <g id="setup" transform="translate(2.000000, 2.000000)">
            <rect id="矩形" opacity="0" x="1" y="0" width="16" height="16"></rect>
            <path d="M14.9395675,9.40104806 C14.1142195,9.52375856 13.3907639,10.0182757 12.976741,10.7427356 C12.5574364,11.4631017 12.490759,12.3357179 12.7957468,13.1114278 C12.0927766,13.7415103 11.2668877,14.2191159 10.3701512,14.5141324 C9.85119744,13.8608384 9.06133847,13.4815747 8.22701608,13.485071 C7.39266178,13.4816063 6.60269629,13.8605472 6.08319538,14.5134468 C5.18658126,14.2184887 4.36072518,13.7411355 3.65759973,13.1114278 C3.96279514,12.3358213 3.89637054,11.4632092 3.47729118,10.7427356 C3.06312451,10.0181035 2.33937963,9.5235613 1.51377904,9.40104806 C1.32285187,8.47681167 1.32285187,7.52330326 1.51377904,6.59906687 C2.33917353,6.47651217 3.06281592,5.98229272 3.47729118,5.25806486 C3.89639028,4.53734833 3.96281186,3.66452337 3.65759973,2.88868708 C4.36057,2.2586046 5.18645885,1.78099902 6.08319538,1.48598253 C6.60248691,2.13931445 7.39245206,2.51876045 8.22701608,2.51572947 C9.07782563,2.51572947 9.85664888,2.13180252 10.3701512,1.48598253 C11.266953,1.78085329 12.0928703,2.25847536 12.7957468,2.88868708 C12.4908451,3.66464227 12.557516,4.53742491 12.976741,5.25806486 C13.3910724,5.98212059 14.1144256,6.47631506 14.9395675,6.59906687 C15.1315232,7.52319785 15.1315232,8.47691708 14.9395675,9.40104806 M16.1427672,5.75237082 C16.056221,5.44057352 15.7621579,5.23278037 15.4393582,5.25532253 C14.9185763,5.29082096 14.4233021,5.02560961 14.1641722,4.57248101 C13.901507,4.121278 13.9190697,3.55980397 14.2094207,3.1258991 C14.3872877,2.8575597 14.3544876,2.50160723 14.1305786,2.27029045 C13.0674429,1.17305569 11.7193585,0.394072789 10.2378335,0.0208898477 C9.92488519,-0.0580760196 9.59927597,0.0921612168 9.45626791,0.381506952 C9.22622927,0.850071581 8.7490003,1.1463102 8.22701608,1.14456177 C7.70503185,1.1463102 7.22780288,0.850071581 6.99776424,0.381506952 C6.85456343,0.0923592752 6.52912136,-0.0578008359 6.21619865,0.0208898477 C4.73469496,0.393743907 3.3865835,1.17250502 2.32345356,2.26960487 C2.09860694,2.50096973 2.06549351,2.85779553 2.24392583,3.12658468 C2.53431735,3.56022475 2.55188315,4.12153197 2.28917437,4.57248101 C2.02968706,5.02524197 1.53466234,5.29031972 1.01398841,5.25532253 C0.690824088,5.23091805 0.395889941,5.43953001 0.311264966,5.75237082 C0.103925321,6.48368758 -0.000827309041,7.24025999 4.91995928e-06,8.00040026 C4.91995928e-06,8.76414066 0.104218644,9.52033965 0.311264966,10.2477441 C0.398677047,10.558628 0.691740971,10.7659171 1.01398841,10.7447924 C1.53441469,10.711752 2.02857299,10.9766314 2.28917437,11.4283195 C2.55175298,11.882176 2.53461338,12.4361278 2.24392583,12.8735302 C2.06586675,13.1421727 2.09896674,13.4985682 2.32345356,13.7298245 C3.38631263,14.8272715 4.73452953,15.6060935 6.21619865,15.9785395 C6.52900235,16.0578894 6.85472347,15.9078862 6.99776424,15.618608 C7.22787042,15.1501954 7.70513963,14.854198 8.22701608,14.8562387 C8.7521733,14.8562387 9.22316941,15.1482975 9.45626791,15.618608 C9.59946872,15.9077557 9.92491079,16.0579158 10.2378335,15.9792251 C11.7195101,15.6064159 13.067691,14.8273773 14.1305786,13.7298245 C14.3552068,13.4982899 14.3880335,13.1414774 14.2094207,12.8728447 C13.9195973,12.4395259 13.9020371,11.8789279 14.1641722,11.4283195 C14.4214265,10.9731933 14.9179217,10.7070612 15.4393582,10.7447924 C15.7615826,10.7639887 16.0543269,10.557628 16.1427672,10.2477441 C16.3496372,9.5165629 16.4543814,8.76028251 16.4540232,8.00040026 C16.4540232,7.23665985 16.3491279,6.48046086 16.1427672,5.75168523 M8.22701608,10.0571518 C7.09306039,10.0571518 6.17026453,9.13367036 6.17026453,8.00040026 C6.17026453,6.86575899 7.09306039,5.94364871 8.22701608,5.94364871 C9.36097176,5.94364871 10.2837676,6.86575899 10.2837676,8.00040026 C10.2837676,9.13367036 9.36097176,10.0571518 8.22701608,10.0571518 M8.22701608,4.57248101 C6.33686141,4.57248101 4.79909684,6.10956 4.79909684,8.00040026 C4.79909684,9.89055492 6.33686141,11.4283195 8.22701608,11.4283195 C10.1171707,11.4283195 11.6549353,9.88986934 11.6549353,8.00040026 C11.6549353,6.10956 10.1171707,4.57248101 8.22701608,4.57248101" id="形状"></path>
        </g>
    </g>
</svg>