<?xml version="1.0" encoding="UTF-8"?>
<svg width="16px" height="16px" viewBox="0 0 16 16" version="1.1" xmlns="http://www.w3.org/2000/svg" xmlns:xlink="http://www.w3.org/1999/xlink">
    <!-- Generator: Sketch 63 (92445) - https://sketch.com -->
    <title>通知</title>
    <desc>Created with Sketch.</desc>
    <g id="页面-1" stroke="none" stroke-width="1">
        <g id="左侧菜单栏" transform="translate(-46.000000, -685.000000)">
            <g id="通知-2" transform="translate(46.000000, 685.000000)">
                <g id="通知">
                    <g>
                        <path d="M6.3296327,0.959269844 L3.76296304,2.79260531 C3.4370361,3.03705004 3.07036901,3.20001256 2.70370192,3.28149477 L1.76666315,3.5259395 C1.72592243,3.5259395 1.68518151,3.5259395 1.68518151,3.56668022 C0.748142748,3.97408747 0.0962907745,4.99260844 0.0962907745,6.13334988 L0.0962907745,8.82224189 C0.0962907745,9.96298332 0.707402597,10.9407565 1.68518151,11.3889115 C1.72592224,11.3889115 1.72592224,11.4296523 1.76666315,11.4296523 L2.45925719,11.5926154 C3.02962886,11.7555784 3.55925847,12.0000226 4.04814793,12.3666897 L6.37037285,14.0370626 C6.90000246,14.4037297 7.47037413,14.6074343 8.08148595,14.6074343 C8.57037541,14.6074343 9.10000502,14.485212 9.50741417,14.2000271 C10.3222306,13.6703975 10.81112,12.8148409 10.81112,11.9185366 L10.81112,3.07779191 C10.81112,2.42593994 10.5666753,1.81482811 10.118526,1.32593866 C9.14074708,0.266677528 7.51112192,0.103715012 6.3296327,0.959271563 L6.3296327,0.959269844 Z M9.54816196,11.8777947 C9.54816196,12.3666842 9.26296372,12.8148335 8.81481441,13.1407585 C8.2851848,13.4666854 7.63333092,13.4259434 7.06296116,13.0185361 L4.74073623,11.3481632 C4.12962441,10.9000139 3.43703037,10.5740888 2.74444398,10.4111244 L2.092592,10.2481613 C1.60370255,10.0037166 1.2777756,9.43334493 1.2777756,8.82223311 L1.2777756,6.13334109 C1.2777756,5.52222927 1.60370255,4.9518576 2.092592,4.70741287 L2.98888871,4.46296814 C3.51851832,4.34074578 4.00740777,4.09630105 4.45555708,3.7703741 L7.02222673,1.93703864 C7.71482077,1.44814918 8.65185762,1.52963139 9.18149487,2.10000173 C9.34445796,2.3037063 9.54816196,2.62963134 9.54816196,3.03704049 L9.54816196,11.8777852 L9.54816196,11.8777947 Z M15.2111118,4.99260787 L14.7629625,3.44445728 C14.6814808,3.11853034 14.3148132,2.95556783 13.9888881,3.03705004 C13.6629612,3.11853168 13.4999987,3.48519935 13.5814809,3.81112438 L14.0296302,5.35927496 C14.4777795,6.90742555 14.4777795,8.53705644 14.0296302,10.0444592 L13.5814809,11.5926098 C13.4999993,11.9185368 13.6629625,12.2444618 13.9888881,12.3666842 C14.0296289,12.3666842 14.1111105,12.4074249 14.1518512,12.4074249 C14.396296,12.4074249 14.6407407,12.2444618 14.7222229,11.9592756 L15.1703722,10.411125 C15.7407439,8.61852968 15.7407439,6.74445406 15.2111129,4.99260653 L15.2111118,4.99260787 Z" id="形状"></path>
                    </g>
                </g>
            </g>
        </g>
    </g>
</svg>