<?xml version="1.0" encoding="UTF-8"?>
<svg width="20px" height="20px" viewBox="0 0 20 20" version="1.1" xmlns="http://www.w3.org/2000/svg" xmlns:xlink="http://www.w3.org/1999/xlink">
    <!-- Generator: Sketch 63 (92445) - https://sketch.com -->
    <title>icon_menu_kngl_nor备份 2@2x</title>
    <desc>Created with Sketch.</desc>
    <g id="icon_menu_kngl_nor备份-2" stroke="none" stroke-width="1">
        <g id="商机" transform="translate(1.000000, 1.000000)">
            <path d="M16.1463176,8.21804667 C15.8541864,4.70951915 13.2840155,2.09508642 9.76840394,1.85017012 L9.76840394,-7.49401414e-16 L8.26584517,-7.49401414e-16 L8.26584517,1.87377757 L8.26584477,1.8737776 C4.86413964,2.13538084 2.15093531,4.81938259 1.85252871,8.2180467 L3.11717648e-06,8.2180467 L3.11717648e-06,9.74952329 L1.85340762,9.74952329 L1.85340749,9.74952178 C2.14354181,13.1460238 4.84026839,15.8385035 8.23720984,16.1233046 L8.23720984,18.0000353 L9.76721338,18.0000353 L9.76721338,16.146912 C13.2813483,15.9049453 15.8529958,13.2551138 16.145127,9.74952178 L18.0000031,9.74952178 L18.0000031,8.21804519 L16.1474825,8.21804519 L16.1463176,8.21804667 Z M9.00001047,14.8898533 L9.00001077,14.8898533 C5.74469644,14.8935855 3.10271875,12.2576627 3.09897064,9.00234837 C3.09523848,5.74703403 5.73116127,3.10505635 8.9864756,3.10130824 C12.2417899,3.09757607 14.8837676,5.73349886 14.8875156,8.98881319 C14.8875156,8.9964766 14.8875156,9.00414002 14.8875156,9.01180347 L14.8875156,9.01180003 C14.8705122,12.2547745 12.243002,14.8780666 9.00000992,14.8898533 L9.00001047,14.8898533 Z" id="形状"></path>
            <path d="M11.3914776,6.61160488 L11.3914776,6.61160488 C10.4261724,5.64807089 8.97627038,5.35974216 7.71591756,5.88068048 L7.71591772,5.88068041 C7.30600569,6.04963773 6.93356293,6.2980498 6.62004542,6.61160482 L6.62004507,6.61160517 C6.306827,6.92583827 6.05803922,7.29828374 5.88767935,7.70799178 L5.88767938,7.70799169 C5.54511029,8.53438411 5.54511029,9.46311271 5.88767931,10.2895121 L5.88767914,10.2895116 C6.60058795,12.0118518 8.57438193,12.8300005 10.29628,12.1169197 C12.0181781,11.4038279 12.8361168,9.42952716 12.1232191,7.707187 C11.9536258,7.29746232 11.7049781,6.92518186 11.3914841,6.61161853 L11.3914776,6.61160488 Z" id="路径"></path>
        </g>
    </g>
</svg>