<?xml version="1.0" encoding="UTF-8"?>
<svg width="16px" height="16px" viewBox="0 0 16 16" version="1.1" xmlns="http://www.w3.org/2000/svg" xmlns:xlink="http://www.w3.org/1999/xlink">
    <!-- Generator: Sketch 63 (92445) - https://sketch.com -->
    <title>字典</title>
    <desc>Created with Sketch.</desc>
    <g id="页面-1" stroke="none" stroke-width="1">
        <g id="左侧菜单栏" transform="translate(-47.000000, -970.000000)">
            <g id="字典-2" transform="translate(47.000000, 970.000000)">
                <g id="字典" transform="translate(1.000000, 0.000000)">
                    <path d="M12.359168,0.194331984 C12.723752,0.194331984 13.019584,0.438925353 13.019584,0.730713727 L13.019584,2.35812268 L14.34,2.35812268 C14.704166,2.35812268 15,2.59927 15,2.89829442 L15,3.44018758 L0,3.44018758 L0,1.27605777 C0,0.67766658 0.593333984,0.194331984 1.31375,0.194331984 L12.3595898,0.194331984 L12.359168,0.194331984 Z M1.97375781,1.27605293 C1.61125781,1.27811991 1.32042383,1.5206463 1.32042383,1.81829166 C1.32042383,2.11731447 1.61375781,2.35984085 1.97375781,2.35984085 L11.6987578,2.35984085 L11.6987578,1.2763985 L1.97375781,1.2763985 L1.97375781,1.27605293 Z M1.83293862e-06,3.44224972 L14.997918,3.44224972 L14.997918,14.273928 L14.997918,14.2739178 C14.9963345,14.5613833 14.8562891,14.8364824 14.6087598,15.0383603 L14.6087598,15.0383603 C14.3600508,15.2408583 14.0244805,15.3536945 13.6754258,15.3522123 L1.32208597,15.3522123 L1.32208594,15.3522123 C0.973031249,15.3536953 0.637460936,15.2408586 0.388751952,15.0383603 L0.388751864,15.0383602 C0.140054598,14.8370281 1.83293862e-06,14.561359 1.83293862e-06,14.2735835 L1.83293862e-06,3.44224972 L1.83293862e-06,3.44224972 Z M1.32041598,3.44224972 L1.32041598,13.7340906 L1.32041598,13.7340887 C1.32562305,14.0299997 1.61582614,14.2682549 1.97375583,14.2704721 L13.0237558,14.2704721 C13.3775058,14.2704721 13.6775058,14.0296687 13.6775058,13.7340903 L13.6775058,3.44189422 L1.32041598,3.44189422 L1.32041598,3.44224972 Z M10.7041738,7.21311866 L3.49792383,7.21311866 C3.16875781,7.21311866 2.90000781,6.97403832 2.90000781,6.68224833 C2.90000781,6.39045995 3.16667383,6.151378 3.49792383,6.151378 L10.702084,6.151378 C11.03125,6.151378 11.3000121,6.38839136 11.3000121,6.68190275 C11.3020833,6.9740367 11.035416,7.21139402 10.704166,7.21311866 L10.7041738,7.21311866 Z M7.54792383,9.37690935 L3.54167383,9.37690935 L3.54167383,9.37690935 C3.18753516,9.37596391 2.90073438,9.13883828 2.89958971,8.84603902 L2.89958971,8.84601171 C2.89937787,8.5530106 3.18649022,8.31534485 3.54087303,8.31516841 C3.5411509,8.31516841 3.54142877,8.31516841 3.54170664,8.31516841 L7.54504649,8.31516841 L7.54504647,8.31516841 C7.89942928,8.31478827 8.18708553,8.55200459 8.18754701,8.84500409 C8.18754701,8.84534878 8.18754701,8.84569347 8.18754701,8.84603816 C8.18754701,9.13989351 7.90088086,9.37690935 7.54754688,9.37690935 L7.54792383,9.37690935 Z" id="形状"></path>
                </g>
            </g>
        </g>
    </g>
</svg>