<?xml version="1.0" encoding="UTF-8"?>
<svg width="16px" height="16px" viewBox="0 0 16 16" version="1.1" xmlns="http://www.w3.org/2000/svg" xmlns:xlink="http://www.w3.org/1999/xlink">
    <!-- Generator: Sketch 63 (92445) - https://sketch.com -->
    <title>系统</title>
    <desc>Created with Sketch.</desc>
    <g id="页面-1" stroke="none" stroke-width="1">
        <g id="左侧菜单栏" transform="translate(-46.000000, -1114.000000)">
            <g id="系统" transform="translate(46.000000, 1114.000000)">
                <g transform="translate(1.000000, 1.000000)">
                    <path d="M11.4527672,0 L2.54723279,0 C1.1462526,0 0,1.34944354 0,3 L0,9 C0,10.6505679 1.14625691,12 2.54723279,12 L11.4527672,12 C12.8537474,12 14,10.6505565 14,9 L14,3 C14,1.3494321 12.8537431,0 11.4527672,0 Z M13,9.32982522 C13,10.2490794 12.4046189,10.9944211 11.6655257,10.9944211 L2.33447432,10.9944211 C1.60564683,10.9944211 1.00000002,10.2490794 1.00000002,9.32982522 L1.00000002,2.65901695 C1.00000002,1.73976279 1.59538114,0.994421084 2.33447432,0.994421084 L11.6655257,0.994421084 C12.3943532,0.994421084 13,1.73976279 13,2.65901695 L13,9.32982522 Z" id="形状"></path>
                    <path d="M10.3838866,15 L3.61611335,15 C3.27488109,15 3,14.7761196 3,14.5 C3,14.2238804 3.27488109,14 3.61611335,14 L10.3838866,14 C10.7251189,14 11,14.2238804 11,14.5 C11,14.7761196 10.7251189,15 10.3838866,15 Z" id="路径"></path>
                </g>
            </g>
        </g>
    </g>
</svg>