<?xml version="1.0" encoding="UTF-8"?>
<svg width="20px" height="20px" viewBox="0 0 20 20" version="1.1" xmlns="http://www.w3.org/2000/svg" xmlns:xlink="http://www.w3.org/1999/xlink">
    <!-- Generator: Sketch 63 (92445) - https://sketch.com -->
    <title>icon_menu_sygl_nor@2x</title>
    <desc>Created with Sketch.</desc>
    <g id="icon_menu_sygl_nor" stroke="none" stroke-width="1">
        <g id="document" transform="translate(2.000000, 2.000000)">
            <rect id="矩形" opacity="0" x="0" y="0" width="16" height="16"></rect>
            <path d="M1.45454628,14.6653333 L1.45454628,1.33533333 L1.45018265,1.33333333 L9.45454254,1.33333333 L9.45454254,4.66533333 C9.45454254,5.40133333 10.1076331,6 10.9105419,6 L14.5403583,6 C14.5410856,6.01066667 14.5454492,6.02466667 14.5454492,6.03466667 L14.5512674,14.6666667 L1.45454628,14.6653333 Z M13.5832679,4.66666667 L10.9090873,4.66533333 L10.9090873,2.00266667 L13.5832679,4.66666667 Z M15.3119943,4.41933333 L11.5876324,0.709333333 C11.175269,0.298666667 10.4378148,0 9.83345145,0 L1.45018265,0 C0.64787896,0.00257241635 -0.000805306934,0.599883815 7.53561879e-07,1.33533333 L7.53561879e-07,14.6653333 C-0.000806527,15.4001554 0.647110372,15.9970611 1.4487281,16 L14.5512674,16 C15.3534538,15.9970601 16.0016048,15.3993422 16.0000008,14.664 L16.0000008,6.03466667 C16.0000008,5.496 15.7105396,4.81666667 15.3119943,4.41933333 Z M10.9090873,8 L5.09090822,8 C4.68924677,8 4.36363583,8.29847683 4.36363583,8.66666667 C4.36363583,9.0348565 4.68924677,9.33333333 5.09090822,9.33333333 L10.9090873,9.33333333 C11.3107488,9.33333333 11.6363597,9.0348565 11.6363597,8.66666667 C11.6363597,8.29847683 11.3107488,8 10.9090873,8 M10.9090873,11.3333333 L5.09090822,11.3333333 C4.68924677,11.3333333 4.36363583,11.6318102 4.36363583,12 C4.36363583,12.3681898 4.68924677,12.6666667 5.09090822,12.6666667 L10.9090873,12.6666667 C11.3107488,12.6666667 11.6363597,12.3681898 11.6363597,12 C11.6363597,11.6318102 11.3107488,11.3333333 10.9090873,11.3333333" id="形状"></path>
        </g>
    </g>
</svg>