<?xml version="1.0" encoding="UTF-8"?>
<svg width="16px" height="16px" viewBox="0 0 16 16" version="1.1" xmlns="http://www.w3.org/2000/svg" xmlns:xlink="http://www.w3.org/1999/xlink">
    <!-- Generator: Sketch 63 (92445) - https://sketch.com -->
    <title>权限管理</title>
    <desc>Created with Sketch.</desc>
    <g id="页面-1" stroke="none" stroke-width="1">
        <g id="左侧菜单栏" transform="translate(-45.000000, -732.000000)">
            <g id="编组-7" transform="translate(45.000000, 731.000000)">
                <g id="权限管理" transform="translate(0.000000, 1.000000)">
                    <g transform="translate(2.000000, 0.000000)" id="形状">
                        <path d="M12.3194706,2.10800245 L6.5834639,0.0140000163 L6.54546385,2.34187942e-16 L0.795457164,2.10000244 C0.347456642,2.15800251 0.00945624902,2.54200296 0.00945624902,2.99400348 L0.00945624902,10.5800123 C0.00945624902,11.1180129 1.07745749,12.4360145 2.06745864,13.3520155 C3.25946003,14.4560168 5.8934631,15.7140183 6.42746372,15.9640186 C6.45746375,15.9760186 6.48546378,15.9860186 6.51746382,15.9940186 L6.54946386,16.0000186 L6.57746389,15.9920186 C6.60546392,15.9840186 6.63546396,15.9760186 6.66546399,15.9620186 C6.69546403,15.9480186 9.71746755,14.5620169 11.0234691,13.3520155 C12.0134702,12.4380145 13.0814715,11.1160129 13.0814715,10.5800123 L13.0814715,2.99600349 C13.0814715,2.54600296 12.7434711,2.16200252 12.3194706,2.10800245 Z M11.9134701,10.4940122 C11.80947,10.7020125 11.2954694,11.5120134 10.2314681,12.4960145 C9.3354671,13.3240155 7.37946483,14.3200167 6.5834639,14.7080171 L6.54546385,14.7240171 L6.51346382,14.7100171 C5.71346289,14.3200167 3.75746061,13.3260155 2.86145957,12.4960145 C1.79745833,11.5120134 1.28345773,10.7020125 1.17945761,10.4940122 L1.17945761,3.20400373 L6.54546385,1.24600145 L11.9134701,3.20400373 L11.9134701,10.4940122 Z M4.32746127,6.02400701 C4.32746127,7.05600821 5.0354621,7.92200922 5.99146321,8.1680095 L5.99146321,11.8560138 C5.99146321,12.1340141 6.2394635,12.3620144 6.54546385,12.3620144 C6.85146421,12.3620144 7.0994645,12.1360141 7.0994645,11.8560138 L7.0994645,10.2340119 L8.24546583,10.2340119 C8.52346616,10.2340119 8.74946642,9.98601162 8.74946642,9.68001126 C8.74946642,9.37401091 8.52346616,9.12601062 8.24546583,9.12601062 L7.0994645,9.12601062 L7.0994645,8.1680095 C8.05346561,7.92200922 8.76346644,7.05400821 8.76346644,6.02400701 C8.76346644,4.80000559 7.76946528,3.80600143 6.54546385,3.80600143 C5.32146243,3.80400443 4.32746127,4.80200559 4.32746127,6.02400701 Z M7.81346533,6.02400701 C7.81346533,6.72200782 7.24546467,7.29200849 6.54546385,7.29200849 C5.84746304,7.29200849 5.27746238,6.72400782 5.27746238,6.02400701 C5.27746238,5.3260062 5.84546304,4.75600553 6.54546385,4.75600553 C7.24346467,4.75800554 7.81346533,5.3260062 7.81346533,6.02400701 Z"></path>
                    </g>
                </g>
            </g>
        </g>
    </g>
</svg>