<?xml version="1.0" encoding="UTF-8"?>
<svg width="20px" height="20px" viewBox="0 0 20 20" version="1.1" xmlns="http://www.w3.org/2000/svg" xmlns:xlink="http://www.w3.org/1999/xlink">
    <!-- Generator: Sketch 63 (92445) - https://sketch.com -->
    <title>icon_menu_rkgl_nor@2x</title>
    <desc>Created with Sketch.</desc>
    <g id="icon_menu_rkgl_nor" stroke="none" stroke-width="1">
        <g id="活动" transform="translate(2.000000, 2.000000)">
            <path d="M15.8718205,5.90266876 C15.5954694,5.04866562 14.8752815,4.43746729 13.9876082,4.30350602 L11.3329623,3.90162219 L10.1354407,1.36473051 C9.75022392,0.535845107 8.92117049,0 8.00837428,0 C7.66502891,0 7.33843211,0.0753532182 7.02858385,0.217687075 C6.52612722,0.452119309 6.11578764,0.85400314 5.88130788,1.36473051 L4.67541197,3.90162219 L2.02076612,4.30350602 C1.13309274,4.43746729 0.404530629,5.04866562 0.128179483,5.90266876 C-0.164920217,6.77341706 0.0528109888,7.71951858 0.697630329,8.3725798 L2.65721118,10.3736264 L2.18825166,13.2035583 C2.07101178,13.906855 2.26362016,14.6185243 2.7242054,15.162742 C3.16804209,15.6985871 3.8212357,16 4.51630071,16 C4.90989173,16 5.29510848,15.899529 5.63845384,15.7069597 L8,14.4092098 L10.3615462,15.7069597 C10.7048915,15.899529 11.0901083,16 11.4836993,16 C12.1787643,16 12.8319579,15.6902145 13.2757946,15.162742 C13.7363798,14.6185243 13.9289882,13.906855 13.8117483,13.2035583 L13.3427888,10.3736264 L15.3023697,8.3725798 C15.947189,7.711146 16.1649202,6.76504448 15.8718205,5.90266876 Z M11.6763077,10.3317635 L12.1871386,13.4631083 C12.22901,13.6975406 12.1620157,13.9236002 12.019653,14.0994244 C11.8772903,14.266876 11.6846819,14.3589744 11.4836993,14.3589744 C11.3664594,14.3589744 11.2575938,14.325484 11.1487282,14.2752486 L8.46058524,12.8016745 C8.31822253,12.7263213 8.15911127,12.6844584 8,12.6844584 C7.84088873,12.6844584 7.68177747,12.7263213 7.54778903,12.8016745 L4.85127179,14.2836211 C4.74240619,14.3422292 4.63354059,14.3757195 4.51630071,14.3757195 C4.31531806,14.3757195 4.1143354,14.2836211 3.98034697,14.1161695 C3.82960998,13.9403454 3.77099004,13.7142857 3.81286143,13.4798535 L4.32369233,10.3485086 C4.38231227,10.021978 4.27344667,9.69544741 4.04734119,9.46101518 L1.87002913,7.24228153 C1.66904648,7.03296703 1.59367798,6.72318158 1.69416931,6.43851387 C1.78628636,6.17059131 1.99564329,5.97802198 2.27199443,5.94453166 L5.2867342,5.48403977 C5.60495674,5.43380429 5.88130788,5.2244898 6.01529632,4.9314495 L7.36355494,2.07639979 C7.48079482,1.8252224 7.73202313,1.6577708 8.00837428,1.6577708 C8.1088656,1.6577708 8.20098265,1.67451596 8.2930997,1.71637886 C8.45221097,1.7833595 8.57782512,1.91732077 8.65319362,2.07639979 L10.0014522,4.92307692 C10.1354407,5.21611722 10.4117918,5.42543171 10.7383886,5.47566719 L13.7531284,5.93615908 C14.0211053,5.97802198 14.2388365,6.16221873 14.3309535,6.43851387 C14.4230706,6.72318158 14.3560764,7.02459445 14.1550937,7.23390895 L11.9694074,9.4526426 C11.7265533,9.67870225 11.6176877,10.0052329 11.6763077,10.3317635 Z" id="形状"></path>
            <path d="M9.56932717,9.07619048 C9.48265258,9.02857143 9.3887551,9 9.29485763,9 C9.01316521,9 8.75314143,9.21904762 8.6447982,9.57142857 C8.57256937,9.79047619 8.44255748,9.96190476 8.27643118,10.0571429 C8.18975659,10.1047619 8.09585912,10.1333333 7.99473876,10.1333333 C7.71304634,10.1333333 7.46746833,9.91428571 7.35190221,9.58095238 L7.34467933,9.56190476 C7.22911321,9.22857143 6.97631232,9.00952381 6.70184278,9.00952381 C6.60072242,9.00952381 6.50682495,9.03809524 6.41292748,9.0952381 C6.2395783,9.2 6.10956641,9.38095238 6.04456047,9.61904762 C5.97955452,9.84761905 5.98677741,10.1047619 6.05900623,10.3333333 C6.39125883,11.3428571 7.15688438,12 7.99473876,12 L8.00196165,12 C8.85426179,12 9.61266446,11.3333333 9.94491706,10.3047619 C10.0965976,9.82857143 9.92324841,9.27619048 9.56932717,9.07619048 Z" id="路径"></path>
        </g>
    </g>
</svg>