<?xml version="1.0" encoding="UTF-8"?>
<svg width="20px" height="20px" viewBox="0 0 20 20" version="1.1" xmlns="http://www.w3.org/2000/svg" xmlns:xlink="http://www.w3.org/1999/xlink">
    <!-- Generator: Sketch 63 (92445) - https://sketch.com -->
    <title>icon_menu_kngl_nor备份@2x</title>
    <desc>Created with Sketch.</desc>
    <g id="icon_menu_kngl_nor备份" stroke="none" stroke-width="1">
        <g id="barrage" transform="translate(2.000000, 2.000000)">
            <rect id="矩形" opacity="0" x="0" y="0" width="16" height="16"></rect>
            <path d="M3.33333333,9.59999926 L6,9.59999926 C6.36818983,9.59999926 6.66666667,9.24182723 6.66666667,8.79999963 C6.66666667,8.35817203 6.36818983,8 6,8 L3.33333333,8 C2.9651435,8 2.66666667,8.35817203 2.66666667,8.79999963 C2.66666667,9.24182723 2.9651435,9.59999926 3.33333333,9.59999926 M3.33333333,12.7999978 L6,12.7999978 C6.36818983,12.7999978 6.66666667,12.4418257 6.66666667,11.9999981 C6.66666667,11.5581706 6.36818983,11.1999985 6,11.1999985 L3.33333333,11.1999985 C2.9651435,11.1999985 2.66666667,11.5581706 2.66666667,11.9999981 C2.66666667,12.4418257 2.9651435,12.7999978 3.33333333,12.7999978 M3.33333333,6.40000074 L8.66666667,6.40000074 C9.0348565,6.40000074 9.33333333,6.04182871 9.33333333,5.60000111 C9.33333333,5.15817352 9.0348565,4.80000148 8.66666667,4.80000148 L3.33333333,4.80000148 C2.9651435,4.80000148 2.66666667,5.15817352 2.66666667,5.60000111 C2.66666667,6.04182871 2.9651435,6.40000074 3.33333333,6.40000074 M14.6653333,14.399997 L1.33333333,14.405597 L1.33333333,1.59440296 L1.33533333,1.60000296 L14.6666667,1.59440296 L14.6653333,14.399997 Z M14.6653333,1.84892157e-06 L1.33533333,1.84892157e-06 C0.599991911,-0.00132531372 0.00257286387,0.711998067 0,1.59440296 L0,14.405597 C0.00257286387,15.2880019 0.599991911,16.0013253 1.33533333,16.0000018 L14.6653333,16.0000018 C15.4004147,16.0008838 15.9974276,15.2876893 16,14.405597 L16,1.59440296 C15.9974276,0.712310732 15.4004147,-0.000883795928 14.6653333,1.84892157e-06 Z" id="形状"></path>
        </g>
    </g>
</svg>