<?xml version="1.0" encoding="UTF-8"?>
<svg width="20px" height="20px" viewBox="0 0 20 20" version="1.1" xmlns="http://www.w3.org/2000/svg" xmlns:xlink="http://www.w3.org/1999/xlink">
    <!-- Generator: Sketch 63 (92445) - https://sketch.com -->
    <title>icon_menu_kngl_nor@2x</title>
    <desc>Created with Sketch.</desc>
    <g id="组件" stroke="none" stroke-width="1">
        <g id="icon_menu_kngl_nor">
            <g id="课程" transform="translate(2.000000, 2.000000)">
                <path d="M11.5535377,15.0243745 C11.5200138,15.0243745 11.48649,15.0243745 11.4529662,15.0154348 L1.28685908,14.1661639 C0.951620598,14.1393449 0.633144037,13.9784304 0.40685806,13.7012999 C0.163810158,13.4331091 0.0380957257,13.0844611 0.0380957257,12.7268734 L0.0380957257,2.69653789 C0.0380957257,2.33895017 0.17219112,1.99030215 0.398477097,1.71317167 C0.624763075,1.43604118 0.951620598,1.27512671 1.28685908,1.24830763 L11.4613471,0.399036803 L11.5619187,0.399036803 C11.8971571,0.399036803 12.2072527,0.533132198 12.4419197,0.7834436 C12.6765866,1.033755 12.8023011,1.36452364 12.8023011,1.73105105 L12.8023011,13.6923602 C12.8023011,14.0499479 12.6765866,14.3896563 12.4419197,14.6399677 C12.1988718,14.8813394 11.8971571,15.0243745 11.5535377,15.0243745 Z M11.5535377,1.63271443 L11.5451567,1.63271443 L1.3706687,2.48198526 C1.27847812,2.49092495 1.17790658,2.59820127 1.17790658,2.69653789 L1.17790658,12.7268734 C1.17790658,12.8341497 1.27009716,12.9324863 1.3706687,12.941426 L11.5451567,13.7817571 L11.5619187,13.7817571 C11.5870615,13.7817571 11.6038235,13.7728174 11.6289664,13.7549381 C11.6457283,13.7370587 11.6541092,13.7191793 11.6541092,13.6834205 L11.6541092,1.73105105 C11.6457283,1.6684732 11.6122044,1.63271443 11.5535377,1.63271443 L11.5535377,1.63271443 Z M15.5763995,2.00818153 C15.3249707,1.73999074 15.0064941,1.59695566 14.6544937,1.59695566 L13.4560161,1.59695566 L13.4560161,2.82169359 L14.6544937,2.82169359 C14.7047795,2.82169359 14.7383033,2.84851267 14.7550652,2.86639206 C14.7718272,2.88427144 14.79697,2.92003021 14.79697,2.97366837 L14.79697,12.5748986 C14.79697,12.6553558 14.7299223,12.7268734 14.6544937,12.7268734 L13.4560161,12.7268734 L13.4560161,13.960551 L14.6544937,13.960551 C15.3752564,13.960551 15.9451619,13.3437122 15.9451619,12.5838383 L15.9451619,2.98260806 C15.9535428,2.61608065 15.8194474,2.26743263 15.5763995,2.00818153 L15.5763995,2.00818153 Z" id="形状"></path>
                <path d="M9.11467772,7.76534379 C9.11467772,7.57761024 9.04763002,7.41669576 8.93029655,7.28260037 L8.93029655,7.2468416 L5.59467362,4.60069249 C5.47734015,4.46659709 5.30972091,4.38613986 5.12533974,4.38613986 C4.76495837,4.38613986 4.47162469,4.69902911 4.47162469,5.08343591 L4.47162469,10.4293723 C4.47162469,10.8137791 4.76495837,11.1266683 5.12533974,11.1266683 C5.28457802,11.1266683 5.4438163,11.0640905 5.55276881,10.9568142 L8.77943923,8.35536352 C8.98058232,8.24808721 9.11467772,8.02459488 9.11467772,7.76534379 Z" id="路径"></path>
            </g>
        </g>
    </g>
</svg>