<?xml version="1.0" encoding="UTF-8"?>
<svg width="16px" height="16px" viewBox="0 0 16 16" version="1.1" xmlns="http://www.w3.org/2000/svg" xmlns:xlink="http://www.w3.org/1999/xlink">
    <!-- Generator: Sketch 63 (92445) - https://sketch.com -->
    <title>线索</title>
    <desc>Created with Sketch.</desc>
    <g id="页面-1" stroke="none" stroke-width="1">
        <g id="左侧菜单栏" transform="translate(-45.000000, -1017.000000)">
            <g id="线索" transform="translate(45.000000, 1017.000000)">
                <g transform="translate(1.000000, 1.000000)" id="路径">
                    <path d="M13.7833275,6.5288797 C13.27381,7.07184315 12.5990185,7.38583316 11.8860849,7.44737908 L11.8860849,7.46824225 L11.6875593,7.46824225 C11.6728899,7.46824225 11.6587096,7.47293646 11.6435511,7.47293646 L2.98567612,7.47293646 L2.9856761,7.47293646 C2.54314841,7.48347726 2.12130683,7.674852 1.80723494,8.00755443 L1.80723497,8.00755439 C1.48314478,8.35238161 1.30104569,8.82061858 1.30114132,9.30889265 L1.30114132,9.76892457 C1.30114132,10.7860026 2.07470756,11.6100961 3.02968611,11.6100961 L10.9257381,11.6100961 L10.9272051,11.606445 L10.9272051,11.606445 C11.1467744,11.2020748 11.552156,10.9536498 11.9902476,10.954993 L11.9902476,10.954993 C12.6661978,10.9346098 13.2296555,11.5025836 13.2487631,12.2235971 C13.2678724,12.9446107 12.735397,13.5456322 12.0594468,13.5660137 C12.0363846,13.5667091 12.0133084,13.5667091 11.9902461,13.5660137 L11.9902461,13.5660137 C11.5854942,13.565088 11.2076998,13.349422 10.9824588,12.9907122 L3.02968983,12.9907122 L3.02968989,12.9907122 C2.22680271,12.9919504 1.45629399,12.6531455 0.887472643,12.0487421 L0.887472668,12.0487422 C0.319334356,11.4448223 -2.55126138e-05,10.6244737 -2.55126138e-05,9.76891643 L-2.55126138e-05,9.30888452 L-2.55126138e-05,9.30924514 C-2.55126138e-05,8.45462841 0.31866496,7.63510243 0.885766297,7.03140642 C1.3962612,6.48740045 2.07300995,6.17340911 2.78740526,6.11290704 L2.78740526,6.09256553 L2.98104147,6.09256553 C2.99619981,6.09204395 3.01038029,6.08787132 3.02504971,6.08787133 L11.6878177,6.08787133 L11.6878178,6.08787133 C12.1302597,6.07690667 12.5519598,5.88559548 12.8662589,5.55325336 L12.8662589,5.5532534 C13.190287,5.20816787 13.3723625,4.7398024 13.3723525,4.25139322 L13.3723525,3.7913613 C13.3723525,3.30316406 13.1904521,2.83478667 12.8662589,2.48950111 L12.8662589,2.48950114 C12.541667,2.1440553 12.1018416,1.95009446 11.6433197,1.95018851 L3.2780953,1.95018851 C3.27613938,1.95383957 3.2756504,1.95801219 3.27369449,1.96166324 L3.27369448,1.96166326 C3.05434749,2.3662706 2.6488243,2.61478305 2.21065191,2.61311528 L2.21065189,2.61311528 C1.5352481,2.6163617 0.985258717,2.03496968 0.982214853,1.31453897 C0.981234315,1.08243532 1.0383295,0.854256695 1.14760932,0.65354529 L1.14760928,0.653545359 C1.36711772,0.249077112 1.77251175,0.000547440876 2.21065185,0.00183399341 L2.21065181,0.00183399341 C2.6120569,0.00317979007 2.98704955,0.215468678 3.2130605,0.569316963 L11.6435585,0.569316963 C12.446463,0.569316963 13.2156255,0.908864011 13.7833292,1.51285278 L13.7833292,1.51285282 C14.3503871,2.116778 14.669131,2.93636624 14.6693607,3.79110219 L14.6693607,4.2511341 L14.6693607,4.250773 C14.6693607,5.10538973 14.3506715,5.92491571 13.7835689,6.52861172 L13.7833275,6.5288797 Z"></path>
                </g>
            </g>
        </g>
    </g>
</svg>