<?xml version="1.0" encoding="UTF-8"?>
<svg width="20px" height="20px" viewBox="0 0 20 20" version="1.1" xmlns="http://www.w3.org/2000/svg" xmlns:xlink="http://www.w3.org/1999/xlink">
    <!-- Generator: Sketch 63 (92445) - https://sketch.com -->
    <title>icon_menu_gzt_nor@2x</title>
    <desc>Created with Sketch.</desc>
    <g id="icon_menu_gzt_nor" stroke="none" stroke-width="1">
        <path d="M15.3442689,16.5907026 L12.6754327,16.589998 L12.6754327,13.9708188 C12.675067,12.4136271 11.4810488,11.1507165 10.0065965,11.1479962 C8.53473338,11.1479962 7.33776035,12.4142499 7.33776035,13.9708188 L7.33776035,16.5885887 L4.66892416,16.587884 L4.66892416,7.2195798 L9.99992445,3.53074394 L15.3442689,7.22803558 L15.3442689,16.5907026 Z M11.3410146,16.589998 L8.67217844,16.5892933 L8.67217844,13.9708188 C8.67217844,13.1914774 9.27066496,12.5572936 10.0065965,12.5572936 C10.7425281,12.5572936 11.3410146,13.1914774 11.3410146,13.9708188 L11.3410146,16.589998 L11.3410146,16.589998 Z M17.6981824,7.17236834 L16.011478,6.00547012 L16.011478,3.74425249 C16.011478,3.35508577 15.7127583,3.03960381 15.3442689,3.03960381 C14.9757795,3.03960381 14.6770599,3.35508577 14.6770599,3.74425249 L14.6770599,5.08238034 L10.3722271,2.10312571 C10.2591457,2.0292239 10.1273841,1.99357459 9.99458678,2.00095165 C9.86536386,1.99569021 9.73759293,2.03126547 9.6276218,2.10312571 L2.30166645,7.17236834 C1.99342509,7.3856317 1.90724447,7.82241647 2.10917665,8.14795443 C2.31110883,8.47349239 2.7246862,8.56450894 3.03292757,8.35124558 L3.33450606,8.14266957 L3.33450606,16.7978693 C3.33450606,17.4602391 3.90163375,18 4.59753279,18 L15.4156603,18 C16.1122265,18 16.678687,17.4602391 16.678687,16.7978693 L16.678687,8.15183001 L16.9675885,8.35124558 C17.2758299,8.56431436 17.6892579,8.47314008 17.8910059,8.14760211 C18.0927538,7.82206415 18.0064238,7.38543712 17.6981824,7.17236834 Z" id="形状"></path>
    </g>
</svg>