<?xml version="1.0" encoding="UTF-8"?>
<svg width="20px" height="20px" viewBox="0 0 20 20" version="1.1" xmlns="http://www.w3.org/2000/svg" xmlns:xlink="http://www.w3.org/1999/xlink">
    <!-- Generator: Sketch 63 (92445) - https://sketch.com -->
    <title>icon_menu_ckgl_nor@2x</title>
    <desc>Created with Sketch.</desc>
    <g id="icon_menu_ckgl_nor" stroke="none" stroke-width="1">
        <g id="dynamic" transform="translate(2.000000, 2.000000)">
            <rect id="矩形" opacity="0" x="0" y="0" width="16" height="16"></rect>
            <path d="M1.45454545,14.5512727 L1.45454545,1.45454545 L14.5454545,1.448 L14.5512727,14.5461818 L1.45454545,14.5505455 L1.45454545,14.5512727 Z M14.5512727,0 L1.44872727,0 C0.649233167,0.000800995958 0.00120244906,0.648506398 0,1.448 L0,14.5512727 C0,15.3498182 0.650181818,16 1.44872727,16 L14.5512727,16 C15.3508845,15.9987985 15.9987985,15.3508845 16,14.5512727 L16,1.448 C15.9983972,0.648790459 15.3504835,0.00152728147 14.5512727,0.000727272727 L14.5512727,0 Z M12.6923636,6.42763636 L10.0378182,9.08145455 L7.71563636,6.75854545 C7.4326895,6.47527636 6.97400291,6.47397604 6.68945455,6.75563636 L3.12509091,10.2829091 C2.85329445,10.5678397 2.85732428,11.0172431 3.13418661,11.2972538 C3.41104893,11.5772645 3.86037805,11.5863755 4.14836364,11.3178182 L7.19854545,8.29890909 L9.52436364,10.6247273 C9.81301428,10.8971798 10.2640766,10.8971798 10.5527273,10.6247273 L13.7207273,7.456 C13.9044267,7.27230053 13.9761696,7.00455272 13.9089309,6.75361457 C13.8416922,6.50267642 13.6456872,6.30667142 13.3947491,6.23943275 C13.1438109,6.17219408 12.8760631,6.24393689 12.6923636,6.42763636" id="形状"></path>
        </g>
    </g>
</svg>